<?xml version="1.0" encoding="UTF-8"?>
<svg width="613px" height="569px" viewBox="0 0 613 569" version="1.1" xmlns="http://www.w3.org/2000/svg" xmlns:xlink="http://www.w3.org/1999/xlink">
    <!-- Generator: Sketch 63.1 (92452) - https://sketch.com -->
    <title>logo</title>
    <desc>Created with Sketch.</desc>
    <g id="Logo" stroke="none" stroke-width="1" fill="none" fill-rule="evenodd">
        <g id="logo" fill="#FFFFFF">
            <path d="M612.358732,306.641268 C612.358732,395.469722 574.50937,475.457984 514.058296,531.358403 C508.194003,421.7262 417.446255,334.641268 306.358732,334.641268 C195.271209,334.641268 104.523461,421.7262 98.659902,531.351652 C38.2080941,475.457984 0.358731812,395.469722 0.358731812,306.641268 C0.358731812,137.642135 137.359598,0.641268188 306.358732,0.641268188 C475.357865,0.641268188 612.358732,137.642135 612.358732,306.641268 Z" id="Path"></path>
            <path d="M268.358732,530.641268 C268.358732,551.628089 285.371911,568.641268 306.358732,568.641268 C327.345552,568.641268 344.358732,551.628089 344.358732,530.641268 C344.358732,509.654448 327.345552,492.641268 306.358732,492.641268 C285.371911,492.641268 268.358732,509.654448 268.358732,530.641268 Z" id="Oval-3"></path>
        </g>
    </g>
</svg>